<mxfile host="app.diagrams.net" modified="2024-06-24T15:54:14.026Z" agent="Mozilla/5.0 (X11; Linux x86_64; rv:126.0) Gecko/20100101 Firefox/126.0" etag="Ilmu4284Jncq3Mve7gNf" version="24.6.2" type="device">
  <diagram name="Page-1" id="0jvEjIKn4cATo-gFUWBm">
    <mxGraphModel dx="975" dy="516" grid="1" gridSize="10" guides="1" tooltips="1" connect="1" arrows="1" fold="1" page="1" pageScale="1" pageWidth="850" pageHeight="1100" math="0" shadow="0">
      <root>
        <mxCell id="0" />
        <mxCell id="1" parent="0" />
        <mxCell id="bIEs7Yky1QCvDbnEG0mA-1" value="dockercan" style="rounded=1;whiteSpace=wrap;html=1;fillColor=none;" vertex="1" parent="1">
          <mxGeometry x="360" y="340" width="200" height="60" as="geometry" />
        </mxCell>
        <mxCell id="bIEs7Yky1QCvDbnEG0mA-2" value="SocketCAN" style="rounded=1;whiteSpace=wrap;html=1;fillColor=none;" vertex="1" parent="1">
          <mxGeometry x="360" y="410" width="200" height="60" as="geometry" />
        </mxCell>
        <mxCell id="bIEs7Yky1QCvDbnEG0mA-5" value="&lt;div&gt;kontejner&lt;br&gt;&lt;/div&gt;&lt;div&gt;ECU 1&lt;/div&gt;" style="rounded=1;whiteSpace=wrap;html=1;pointerEvents=0;strokeColor=default;align=center;verticalAlign=middle;fontFamily=Times New Roman;fontSize=12;fontColor=default;fillColor=none;container=0;" vertex="1" parent="1">
          <mxGeometry x="360" y="260" width="60" height="60" as="geometry" />
        </mxCell>
        <mxCell id="bIEs7Yky1QCvDbnEG0mA-6" value="&lt;div&gt;kontejner&lt;br&gt;&lt;/div&gt;&lt;div&gt;ECU N&lt;/div&gt;" style="rounded=1;whiteSpace=wrap;html=1;pointerEvents=0;strokeColor=default;align=center;verticalAlign=middle;fontFamily=Times New Roman;fontSize=12;fontColor=default;fillColor=none;container=0;" vertex="1" parent="1">
          <mxGeometry x="500" y="260" width="60" height="60" as="geometry" />
        </mxCell>
        <mxCell id="bIEs7Yky1QCvDbnEG0mA-11" value="Linux mrežni upravljački programi" style="rounded=1;whiteSpace=wrap;html=1;fillColor=none;" vertex="1" parent="1">
          <mxGeometry x="360" y="480" width="200" height="60" as="geometry" />
        </mxCell>
        <mxCell id="bIEs7Yky1QCvDbnEG0mA-12" value="CAN sklopovlje" style="rounded=1;whiteSpace=wrap;html=1;fillColor=none;" vertex="1" parent="1">
          <mxGeometry x="360" y="550" width="200" height="60" as="geometry" />
        </mxCell>
        <mxCell id="bIEs7Yky1QCvDbnEG0mA-13" value="" style="endArrow=classic;html=1;rounded=0;entryX=0;entryY=0.5;entryDx=0;entryDy=0;strokeColor=none;" edge="1" parent="1" target="bIEs7Yky1QCvDbnEG0mA-6">
          <mxGeometry width="50" height="50" relative="1" as="geometry">
            <mxPoint x="420" y="300" as="sourcePoint" />
            <mxPoint x="470" y="250" as="targetPoint" />
          </mxGeometry>
        </mxCell>
        <mxCell id="bIEs7Yky1QCvDbnEG0mA-14" value="..." style="edgeLabel;html=1;align=center;verticalAlign=middle;resizable=0;points=[];" vertex="1" connectable="0" parent="bIEs7Yky1QCvDbnEG0mA-13">
          <mxGeometry x="0.0733" relative="1" as="geometry">
            <mxPoint as="offset" />
          </mxGeometry>
        </mxCell>
        <mxCell id="bIEs7Yky1QCvDbnEG0mA-16" value="" style="endArrow=classic;startArrow=classic;html=1;rounded=0;exitX=0.15;exitY=0.5;exitDx=0;exitDy=0;exitPerimeter=0;" edge="1" parent="1">
          <mxGeometry width="50" height="50" relative="1" as="geometry">
            <mxPoint x="380" y="580" as="sourcePoint" />
            <mxPoint x="380" y="370" as="targetPoint" />
          </mxGeometry>
        </mxCell>
        <mxCell id="bIEs7Yky1QCvDbnEG0mA-18" value="cangw/vxcan/vcan" style="endArrow=classic;startArrow=classic;html=1;rounded=0;" edge="1" parent="1">
          <mxGeometry width="50" height="50" relative="1" as="geometry">
            <mxPoint x="540" y="330" as="sourcePoint" />
            <mxPoint x="380" y="330" as="targetPoint" />
          </mxGeometry>
        </mxCell>
        <mxCell id="bIEs7Yky1QCvDbnEG0mA-20" value="&lt;div&gt;Docker&lt;/div&gt;&lt;div&gt;Engine&lt;br&gt;&lt;/div&gt;" style="shape=trapezoid;perimeter=trapezoidPerimeter;whiteSpace=wrap;html=1;fixedSize=1;rotation=-90;horizontal=1;textDirection=vertical-rl;" vertex="1" parent="1">
          <mxGeometry x="250" y="300" width="140" height="60" as="geometry" />
        </mxCell>
      </root>
    </mxGraphModel>
  </diagram>
</mxfile>
